<?xml version="1.0" encoding="utf-8"?>
<!-- Generator: Adobe Illustrator 15.0.2, SVG Export Plug-In . SVG Version: 6.00 Build 0)  -->
<!DOCTYPE svg PUBLIC "-//W3C//DTD SVG 1.1//EN" "http://www.w3.org/Graphics/SVG/1.1/DTD/svg11.dtd">
<svg version="1.1" id="Layer_1" xmlns="http://www.w3.org/2000/svg" xmlns:xlink="http://www.w3.org/1999/xlink" x="0px" y="0px"
	 width="206.141px" height="221.052px" viewBox="0 0 206.141 221.052" enable-background="new 0 0 206.141 221.052"
	 xml:space="preserve">
<g>
	<path fill="#EB5936" d="M102.946,201.768c-49.173,0-89.177-40.005-89.177-89.177c0-49.172,40.004-89.177,89.177-89.177
		c49.172,0,89.177,40.004,89.177,89.177C192.123,161.763,152.118,201.768,102.946,201.768z M102.946,31.415
		c-44.761,0-81.177,36.416-81.177,81.177c0,44.762,36.416,81.177,81.177,81.177s81.177-36.415,81.177-81.177
		C184.123,67.83,147.707,31.415,102.946,31.415z"/>
</g>
<g>
	<path fill="#EB5936" d="M104.006,122.246c-0.695,0-1.132-0.012-1.264-0.016l0.398-12.994c0.262,0.006,26.291,0.603,39.646-12.038
		c4.96-4.695,7.467-10.575,7.661-17.975c0.184-6.982-1.605-12.227-5.47-16.035c-9.122-8.989-27.676-8.228-34.659-7.94
		c-3.502,0.142-5.812,0.238-7.97-1.919l9.192-9.192c-1.698-1.698-3.641-1.806-3.856-1.812c0.289,0.003,1.295-0.033,2.101-0.065
		c8.526-0.351,31.176-1.28,44.316,11.67c6.478,6.383,9.62,15.009,9.341,25.637c-0.287,10.895-4.243,20.017-11.76,27.112
		C136.137,121.351,110.105,122.246,104.006,122.246z"/>
</g>
<g>
	<rect x="59.41" y="110.175" fill="#EB5936" width="43.536" height="13"/>
</g>
<g>
	<rect x="58.91" y="187.464" fill="#EB5936" width="40.036" height="13"/>
</g>
<g>
	<rect x="81.178" y="150.046" fill="#EB5936" width="19.56" height="13"/>
</g>
<g>
	<line fill="#231F20" x1="102.946" y1="44.546" x2="102.946" y2="200.464"/>
	<rect x="96.946" y="44.546" fill="#EB5936" width="12" height="155.918"/>
</g>
<g>
	<line fill="#FFFFFF" x1="37.069" y1="48.596" x2="168.824" y2="48.596"/>
	<rect x="37.069" y="42.096" fill="#EB5936" width="131.755" height="13"/>
</g>
</svg>
